# xmcd
# 
# Track frame offsets:
#     150
#     16121
#     39553
#     57449
#     68715
#     99448
#     110913
#     129339
#     146898
#     163234
#     181005
#     190468
# 
# Disc length: 3036
# 
# Revision: 1
# Processed by: cddbd v1.5.2PL0 Copyright (c) Steve Scherf et al.
# Submitted via: fre:ac v1.0.17
# 
DISCID=aa0bda0c
DTITLE=Radiopuhelimet - Ei kenenk‰‰n maa
DYEAR=2013
DGENRE=Rock
TTITLE0=Tommin pornolehdet
TTITLE1=Ei kenenk‰‰n maa
TTITLE2=Sm‰id‰
TTITLE3=Kuolemaa karkuun
TTITLE4=Kilju
TTITLE5=Positiivinen paranoia
TTITLE6=Pitk‰‰n liukuun
TTITLE7=Menn‰‰n mets‰‰n
TTITLE8=Juhlatalossa
TTITLE9=Kapteenin kuolema
TTITLE10=H‰n muuttaa kaiken
TTITLE11=Yˆ kun saatiin p‰‰tˆkseen
EXTD=
EXTT0=
EXTT1=
EXTT2=
EXTT3=
EXTT4=
EXTT5=
EXTT6=
EXTT7=
EXTT8=
EXTT9=
EXTT10=
EXTT11=
PLAYORDER=
